# xmcd CD database file
#
# Track frame offsets:
#	150
#	11207
#	25662
#	41147
#	54242
#	71180
#	89187
#	110420
#
# Disc length: 1658 seconds
#
# Revision: 0
# Processed by: cddbd v1.5.2PL0 Copyright (c) Steve Scherf et al.
# Submitted via: CDex 1.51
#
DISCID=6d067808
DTITLE=Ted Taylor - Be Ever Wonderful
DYEAR=1991
DGENRE=Blues
TTITLE0=Be Ever Wonderful
TTITLE1=Pleadin' For Love
TTITLE2=It Hurts To Be In Love
TTITLE3=Someday
TTITLE4=Little Red Rooster
TTITLE5=How Could You Do That
TTITLE6=You're Tippin', She's Rippin
TTITLE7=Stay Away From My Baby
EXTD=YEAR: 1991
EXTT0=
EXTT1=
EXTT2=
EXTT3=
EXTT4=
EXTT5=
EXTT6=
EXTT7=
PLAYORDER=
